<svg width="110pt" height="31pt" viewBox="-0.8 -0.8 111 32" xmlns="http://www.w3.org/2000/svg"><g stroke-linecap="round" fill-rule="evenodd" stroke="#000000" stroke-width="0.4mm" fill="#cf1020"><path d="M 68.086 30 L 64.297 30 A 2.809 2.809 0 0 1 64.139 29.599 Q 63.932 28.95 63.789 27.773 A 8.593 8.593 0 0 1 61.025 29.736 A 8.062 8.062 0 0 1 57.773 30.391 A 9.037 9.037 0 0 1 55.421 30.099 A 6.795 6.795 0 0 1 52.646 28.623 A 5.681 5.681 0 0 1 50.653 24.487 A 7.125 7.125 0 0 1 50.645 24.141 A 6.923 6.923 0 0 1 51.02 21.808 A 5.823 5.823 0 0 1 53.154 19.014 A 8.546 8.546 0 0 1 55.714 17.773 Q 57.637 17.188 60.215 17.188 L 63.73 17.188 L 63.73 15.527 A 5.121 5.121 0 0 0 63.572 14.217 A 3.678 3.678 0 0 0 62.598 12.51 A 3.592 3.592 0 0 0 61.144 11.65 Q 60.327 11.387 59.258 11.387 A 6.335 6.335 0 0 0 57.738 11.561 A 4.746 4.746 0 0 0 56.016 12.363 A 3.802 3.802 0 0 0 55.284 13.066 A 2.633 2.633 0 0 0 54.707 14.727 L 51.074 14.727 A 4.626 4.626 0 0 1 51.629 12.555 A 6.261 6.261 0 0 1 52.197 11.67 A 7.244 7.244 0 0 1 54.225 9.868 A 9.123 9.123 0 0 1 55.244 9.336 A 9.995 9.995 0 0 1 58.692 8.502 A 11.864 11.864 0 0 1 59.473 8.477 A 11.776 11.776 0 0 1 61.772 8.687 Q 63.138 8.96 64.199 9.583 A 6.396 6.396 0 0 1 65.195 10.303 A 6.204 6.204 0 0 1 67.21 13.974 A 8.88 8.88 0 0 1 67.344 15.332 L 67.344 25.059 A 18.569 18.569 0 0 0 67.424 26.84 Q 67.587 28.533 68.086 29.688 L 68.086 30 Z M 109.219 30 L 105.43 30 A 2.809 2.809 0 0 1 105.272 29.599 Q 105.065 28.95 104.922 27.773 A 8.593 8.593 0 0 1 102.158 29.736 A 8.062 8.062 0 0 1 98.906 30.391 A 9.037 9.037 0 0 1 96.554 30.099 A 6.795 6.795 0 0 1 93.779 28.623 A 5.681 5.681 0 0 1 91.786 24.487 A 7.125 7.125 0 0 1 91.777 24.141 A 6.923 6.923 0 0 1 92.153 21.808 A 5.823 5.823 0 0 1 94.287 19.014 A 8.546 8.546 0 0 1 96.847 17.773 Q 98.77 17.188 101.348 17.188 L 104.863 17.188 L 104.863 15.527 A 5.121 5.121 0 0 0 104.704 14.217 A 3.678 3.678 0 0 0 103.73 12.51 A 3.592 3.592 0 0 0 102.277 11.65 Q 101.46 11.387 100.391 11.387 A 6.335 6.335 0 0 0 98.87 11.561 A 4.746 4.746 0 0 0 97.148 12.363 A 3.802 3.802 0 0 0 96.417 13.066 A 2.633 2.633 0 0 0 95.84 14.727 L 92.207 14.727 A 4.626 4.626 0 0 1 92.762 12.555 A 6.261 6.261 0 0 1 93.33 11.67 A 7.244 7.244 0 0 1 95.358 9.868 A 9.123 9.123 0 0 1 96.377 9.336 A 9.995 9.995 0 0 1 99.824 8.502 A 11.864 11.864 0 0 1 100.605 8.477 A 11.776 11.776 0 0 1 102.905 8.687 Q 104.271 8.96 105.332 9.583 A 6.396 6.396 0 0 1 106.328 10.303 A 6.204 6.204 0 0 1 108.343 13.974 A 8.88 8.88 0 0 1 108.477 15.332 L 108.477 25.059 A 18.569 18.569 0 0 0 108.556 26.84 Q 108.72 28.533 109.219 29.688 L 109.219 30 Z M 36.992 19.355 L 36.992 19.668 Q 36.992 24.512 34.766 27.451 A 7.319 7.319 0 0 1 32.158 29.656 Q 30.664 30.391 28.789 30.391 A 9.064 9.064 0 0 1 26.146 30.025 A 6.938 6.938 0 0 1 22.598 27.559 L 22.422 30 L 19.102 30 L 19.102 0 L 22.715 0 L 22.715 11.191 A 7.135 7.135 0 0 1 27.9 8.511 A 10.155 10.155 0 0 1 28.75 8.477 A 8.156 8.156 0 0 1 31.554 8.939 A 7.019 7.019 0 0 1 34.795 11.387 A 10.037 10.037 0 0 1 36.399 14.679 Q 36.992 16.727 36.992 19.355 Z M 74.609 8.867 L 79.98 25.098 L 85.215 8.867 L 88.906 8.867 L 81.328 30 L 78.574 30 L 70.918 8.867 L 74.609 8.867 Z M 3.613 0 L 3.613 30 L 0 30 L 0 0 L 3.613 0 Z M 45.469 0 L 45.469 30 L 41.855 30 L 41.855 0 L 45.469 0 Z M 13.32 8.867 L 13.32 30 L 9.707 30 L 9.707 8.867 L 13.32 8.867 Z M 22.715 14.863 L 22.715 24.004 A 6.791 6.791 0 0 0 23.986 25.808 Q 25.419 27.229 27.597 27.318 A 7.204 7.204 0 0 0 27.891 27.324 A 5.359 5.359 0 0 0 29.744 27.017 A 4.621 4.621 0 0 0 31.934 25.313 A 6.507 6.507 0 0 0 32.814 23.518 Q 33.361 21.839 33.378 19.415 A 22.277 22.277 0 0 0 33.379 19.258 A 15.416 15.416 0 0 0 33.24 17.115 Q 33.087 16.026 32.765 15.136 A 6.595 6.595 0 0 0 31.953 13.555 A 4.58 4.58 0 0 0 28.618 11.587 A 6.439 6.439 0 0 0 27.852 11.543 A 5.957 5.957 0 0 0 25.587 11.953 Q 24.106 12.557 23.161 14.046 A 7.447 7.447 0 0 0 22.715 14.863 Z M 63.73 24.082 L 63.73 19.746 L 60.898 19.746 A 16.959 16.959 0 0 0 58.642 19.883 Q 56.171 20.216 55.093 21.365 A 3.181 3.181 0 0 0 54.258 23.633 A 4.089 4.089 0 0 0 54.411 24.781 A 3.051 3.051 0 0 0 55.391 26.289 A 3.971 3.971 0 0 0 57.228 27.148 A 5.595 5.595 0 0 0 58.301 27.246 Q 60 27.246 61.523 26.367 A 5.932 5.932 0 0 0 62.837 25.356 A 4.923 4.923 0 0 0 63.73 24.082 Z M 104.863 24.082 L 104.863 19.746 L 102.031 19.746 A 16.959 16.959 0 0 0 99.774 19.883 Q 97.304 20.216 96.226 21.365 A 3.181 3.181 0 0 0 95.391 23.633 A 4.089 4.089 0 0 0 95.543 24.781 A 3.051 3.051 0 0 0 96.523 26.289 A 3.971 3.971 0 0 0 98.361 27.148 A 5.595 5.595 0 0 0 99.434 27.246 Q 101.133 27.246 102.656 26.367 A 5.932 5.932 0 0 0 103.97 25.356 A 4.923 4.923 0 0 0 104.863 24.082 Z M 9.414 3.262 Q 9.414 2.383 9.951 1.777 Q 10.449 1.217 11.39 1.175 A 3.481 3.481 0 0 1 11.543 1.172 Q 12.598 1.172 13.145 1.777 A 2.106 2.106 0 0 1 13.688 3.126 A 2.726 2.726 0 0 1 13.691 3.262 A 2.324 2.324 0 0 1 13.579 3.998 A 1.964 1.964 0 0 1 13.145 4.727 Q 12.645 5.262 11.72 5.308 A 3.57 3.57 0 0 1 11.543 5.312 A 3.032 3.032 0 0 1 10.934 5.255 Q 10.565 5.18 10.284 5.004 A 1.608 1.608 0 0 1 9.951 4.727 A 2.027 2.027 0 0 1 9.425 3.503 A 2.688 2.688 0 0 1 9.414 3.262 Z" vector-effect="non-scaling-stroke"/></g></svg>